<svg width="48" height="48" viewBox="0 0 48 48" fill="none" xmlns="http://www.w3.org/2000/svg">
<rect width="48" height="48" fill="white" fill-opacity="0.3"/>
<path d="M16.9829 19.1968C18.1913 19.1968 19.1709 18.2172 19.1709 17.0088C19.1709 15.8004 18.1913 14.8208 16.9829 14.8208C15.7745 14.8208 14.7949 15.8004 14.7949 17.0088C14.7949 18.2172 15.7745 19.1968 16.9829 19.1968Z" fill="white"/>
<path d="M21.2358 20.8552V32.9942H25.0047V26.9912C25.0047 25.4072 25.3027 23.8732 27.2667 23.8732C29.2037 23.8732 29.2277 25.6842 29.2277 27.0912V32.9952H32.9988V26.3382C32.9988 23.0682 32.2948 20.5552 28.4728 20.5552C26.6378 20.5552 25.4078 21.5622 24.9047 22.5152H24.8537V20.8552H21.2358ZM15.0938 20.8552H18.8687V32.9942H15.0938V20.8552Z" fill="white"/>
</svg>
