<svg width="25" height="24" viewBox="0 0 25 24" fill="none" xmlns="http://www.w3.org/2000/svg">
<path d="M20.9617 10.999H22.9617C22.9617 5.869 19.0887 2 13.9517 2V4C18.0137 4 20.9617 6.943 20.9617 10.999Z" fill="#00D4FC"/>
<path d="M13.9612 7.99999C16.0642 7.99999 16.9612 8.89699 16.9612 11H18.9612C18.9612 7.77499 17.1862 5.99999 13.9612 5.99999V7.99999ZM17.3832 13.443C17.1911 13.2683 16.9386 13.1752 16.679 13.1832C16.4195 13.1912 16.1732 13.2998 15.9922 13.486L13.5992 15.947C13.0232 15.837 11.8652 15.476 10.6732 14.287C9.48122 13.094 9.12022 11.933 9.01322 11.361L11.4722 8.96699C11.6586 8.78612 11.7674 8.53982 11.7754 8.2802C11.7834 8.02059 11.6901 7.76804 11.5152 7.57599L7.82022 3.51299C7.64526 3.32035 7.4021 3.2035 7.14237 3.18725C6.88265 3.17101 6.62682 3.25665 6.42922 3.42599L4.25922 5.28699C4.08633 5.46051 3.98314 5.69145 3.96922 5.93599C3.95422 6.18599 3.66822 12.108 8.26022 16.702C12.2662 20.707 17.2842 21 18.6662 21C18.8682 21 18.9922 20.994 19.0252 20.992C19.2697 20.9783 19.5005 20.8747 19.6732 20.701L21.5332 18.53C21.7027 18.3325 21.7885 18.0768 21.7724 17.817C21.7564 17.5573 21.6397 17.3141 21.4472 17.139L17.3832 13.443Z" fill="#00D4FC"/>
</svg>
