<svg width="25" height="24" viewBox="0 0 25 24" fill="none" xmlns="http://www.w3.org/2000/svg">
<path d="M12.9614 1.5C10.7742 1.50258 8.67727 2.3726 7.13065 3.91922C5.58404 5.46584 4.71401 7.56276 4.71143 9.75C4.70881 11.5374 5.29267 13.2763 6.37343 14.7C6.37343 14.7 6.59843 14.9962 6.63518 15.039L12.9614 22.5L19.2907 15.0353C19.3237 14.9955 19.5494 14.7 19.5494 14.7L19.5502 14.6978C20.6304 13.2747 21.214 11.5366 21.2114 9.75C21.2089 7.56276 20.3388 5.46584 18.7922 3.91922C17.2456 2.3726 15.1487 1.50258 12.9614 1.5ZM12.9614 12.75C12.3681 12.75 11.7881 12.5741 11.2947 12.2444C10.8014 11.9148 10.4169 11.4462 10.1898 10.8981C9.96273 10.3499 9.90332 9.74667 10.0191 9.16473C10.1348 8.58279 10.4206 8.04824 10.8401 7.62868C11.2597 7.20912 11.7942 6.9234 12.3762 6.80764C12.9581 6.69189 13.5613 6.7513 14.1095 6.97836C14.6577 7.20542 15.1262 7.58994 15.4558 8.08329C15.7855 8.57664 15.9614 9.15666 15.9614 9.75C15.9604 10.5453 15.6441 11.3078 15.0817 11.8702C14.5193 12.4326 13.7568 12.749 12.9614 12.75Z" fill="#00D4FC"/>
</svg>
